<svg width="20" height="21" viewBox="0 0 20 21" fill="none" xmlns="http://www.w3.org/2000/svg">
<path d="M19.827 19.1441L14.9656 14.2838C16.2697 12.7849 17.0592 10.8293 17.0592 8.69178C17.0592 3.98668 13.2313 0.164062 8.52961 0.164062C3.82346 0.164062 0 3.99111 0 8.69178C0 13.3924 3.8279 17.2195 8.52961 17.2195C10.6676 17.2195 12.6236 16.4301 14.1229 15.1264L18.9843 19.9867C19.0996 20.102 19.2548 20.1641 19.4056 20.1641C19.5564 20.1641 19.7117 20.1064 19.827 19.9867C20.0577 19.7561 20.0577 19.3747 19.827 19.1441ZM1.19317 8.69178C1.19317 4.64743 4.48436 1.3614 8.52517 1.3614C12.5704 1.3614 15.8572 4.65187 15.8572 8.69178C15.8572 12.7317 12.5704 16.0266 8.52517 16.0266C4.48436 16.0266 1.19317 12.7361 1.19317 8.69178Z" fill="#CB8738"/>
</svg>
